<svg width="558" height="334" viewBox="0 0 558 334" fill="none" xmlns="http://www.w3.org/2000/svg">
<path d="M37 317C37 325.783 29.4435 333 20 333C10.5565 333 3 325.783 3 317C3 308.217 10.5565 301 20 301C29.4435 301 37 308.217 37 317Z" stroke="black" stroke-width="2"/>
<path d="M35 264C35 272.783 27.4435 280 18 280C8.55654 280 1 272.783 1 264C1 255.217 8.55654 248 18 248C27.4435 248 35 255.217 35 264Z" stroke="black" stroke-width="2"/>
<line x1="27" y1="263" x2="444" y2="263" stroke="black" stroke-width="2"/>
<line x1="445" y1="264" x2="445" y2="3" stroke="black" stroke-width="2"/>
<line x1="445" y1="4" x2="557" y2="4" stroke="black" stroke-width="2"/>
<line x1="548.344" y1="1.06092" x2="557.272" y2="4.32846" stroke="black" stroke-width="2"/>
<line x1="549.107" y1="7.30352" x2="557.435" y2="4.04306" stroke="black" stroke-width="2"/>
<line x1="29" y1="317" x2="74" y2="317" stroke="black" stroke-width="2"/>
<line x1="73" y1="317" x2="73" y2="264" stroke="black" stroke-width="2"/>
<line x1="73.353" y1="263.361" x2="70.9327" y2="269.617" stroke="black" stroke-width="2"/>
<line x1="72.9487" y1="263.684" x2="74.9487" y2="269.684" stroke="black" stroke-width="2"/>
<line x1="3" y1="317" x2="12" y2="317" stroke="black" stroke-width="2"/>
<line x1="1" y1="264" x2="10" y2="264" stroke="black" stroke-width="2"/>
<line x1="13.5" y1="308" x2="13.5" y2="327" stroke="black" stroke-width="3"/>
<line x1="11.5" y1="255" x2="11.5" y2="274" stroke="black" stroke-width="3"/>
<line x1="13.5294" y1="317.118" x2="28.5294" y2="309.118" stroke="black" stroke-width="2"/>
<line x1="11.5294" y1="264.118" x2="26.5294" y2="256.118" stroke="black" stroke-width="2"/>
<line x1="13.5547" y1="316.168" x2="28.5547" y2="326.168" stroke="black" stroke-width="2"/>
<line x1="11.5547" y1="263.168" x2="26.5547" y2="273.168" stroke="black" stroke-width="2"/>
<line x1="29" y1="308" x2="29" y2="327" stroke="black" stroke-width="2"/>
<line x1="27" y1="255" x2="27" y2="274" stroke="black" stroke-width="2"/>
</svg>
