<svg width="151" height="643" viewBox="0 0 151 643" fill="none" xmlns="http://www.w3.org/2000/svg">
<rect x="1.5" y="1.5" width="148" height="512" stroke="black" stroke-width="3"/>
<rect x="66.5" y="513.5" width="16" height="26" stroke="black" stroke-width="3"/>
<rect x="55.5" y="539.5" width="40" height="102" stroke="black" stroke-width="3"/>
<line x1="75.5" y1="541" x2="75.5" y2="640" stroke="black"/>
<line x1="76.3361" y1="540.63" x2="80.5242" y2="544.432" stroke="black"/>
<line x1="75.3536" y1="540.354" x2="71.3536" y2="544.354" stroke="black"/>
<rect x="70.5" y="550.5" width="11" height="80" rx="5.5" stroke="black" stroke-width="3"/>
<line x1="74.5" y1="2" x2="74.5" y2="28" stroke="black"/>
<circle cx="74.5" cy="31.5" r="0.5" fill="black"/>
<line x1="74.5" y1="35" x2="74.5" y2="61" stroke="black"/>
<circle cx="74.5" cy="64.5" r="0.5" fill="black"/>
<line x1="74.5" y1="68" x2="74.5" y2="94" stroke="black"/>
<circle cx="74.5" cy="97.5" r="0.5" fill="black"/>
<line x1="74.5" y1="101" x2="74.5" y2="127" stroke="black"/>
<circle cx="74.5" cy="130.5" r="0.5" fill="black"/>
<line x1="74.5" y1="134" x2="74.5" y2="160" stroke="black"/>
<circle cx="74.5" cy="163.5" r="0.5" fill="black"/>
<line x1="74.5" y1="167" x2="74.5" y2="193" stroke="black"/>
<circle cx="74.5" cy="196.5" r="0.5" fill="black"/>
<line x1="74.5" y1="200" x2="74.5" y2="226" stroke="black"/>
<circle cx="74.5" cy="229.5" r="0.5" fill="black"/>
<line x1="74.5" y1="233" x2="74.5" y2="259" stroke="black"/>
<circle cx="74.5" cy="262.5" r="0.5" fill="black"/>
<line x1="74.5" y1="266" x2="74.5" y2="292" stroke="black"/>
<circle cx="74.5" cy="295.5" r="0.5" fill="black"/>
<line x1="74.5" y1="299" x2="74.5" y2="325" stroke="black"/>
<circle cx="74.5" cy="328.5" r="0.5" fill="black"/>
<line x1="74.5" y1="332" x2="74.5" y2="358" stroke="black"/>
<circle cx="74.5" cy="361.5" r="0.5" fill="black"/>
<line x1="74.5" y1="365" x2="74.5" y2="391" stroke="black"/>
<circle cx="74.5" cy="394.5" r="0.5" fill="black"/>
<line x1="74.5" y1="398" x2="74.5" y2="424" stroke="black"/>
<circle cx="74.5" cy="427.5" r="0.5" fill="black"/>
<line x1="74.5" y1="431" x2="74.5" y2="457" stroke="black"/>
<circle cx="74.5" cy="460.5" r="0.5" fill="black"/>
<line x1="74.5" y1="464" x2="74.5" y2="490" stroke="black"/>
<circle cx="74.5" cy="493.5" r="0.5" fill="black"/>
<line x1="74.5" y1="497" x2="74.5" y2="512" stroke="black"/>
<rect x="1.5" y="77.5" width="148" height="40" stroke="black" stroke-width="3"/>
<rect x="1.5" y="181.5" width="148" height="40" stroke="black" stroke-width="3"/>
<rect x="58.5" y="117.5" width="34" height="64" stroke="black" stroke-width="3"/>
<rect x="58.5" y="221.5" width="34" height="191" stroke="black" stroke-width="3"/>
<line x1="74.3536" y1="413.354" x2="67.3536" y2="420.354" stroke="black"/>
<line x1="74.3671" y1="412.661" x2="81.5567" y2="420.438" stroke="black"/>
<mask id="path-45-inside-1_964_97" fill="white">
<path d="M67 420H82V513H67V420Z"/>
</mask>
<path d="M82 513V514H83V513H82ZM67 513H66V514H67V513ZM81 420V513H83V420H81ZM82 512H67V514H82V512ZM68 513V420H66V513H68Z" fill="black" mask="url(#path-45-inside-1_964_97)"/>
<rect x="61.5" y="434.5" width="27" height="5" stroke="black"/>
<path d="M67.0358 447C63.9903 447 59.7265 447.704 67.0358 450.52C74.3451 453.336 81.9252 454.333 84.8015 454.48C87.0011 454.773 89.4713 455.888 81.756 458" stroke="black" stroke-width="3"/>
<path d="M67.0358 484C63.9903 484 59.7265 484.704 67.0358 487.52C74.3451 490.336 81.9252 491.333 84.8015 491.48C87.0011 491.773 89.4713 492.888 81.756 495" stroke="black" stroke-width="3"/>
<path d="M68.0358 503C64.9903 503 60.7265 503.704 68.0358 506.52C75.3451 509.336 82.9252 510.333 85.8015 510.48C88.0011 510.773 90.4713 511.888 82.756 514" stroke="black" stroke-width="3"/>
<path d="M67.0358 466C63.9903 466 59.7265 466.704 67.0358 469.52C74.3451 472.336 81.9252 473.333 84.8015 473.48C87.0011 473.773 89.4713 474.888 81.756 477" stroke="black" stroke-width="3"/>
</svg>
