<svg width="330" height="281" viewBox="0 0 330 281" fill="none" xmlns="http://www.w3.org/2000/svg">
<circle cx="176" cy="204" r="10" fill="#3A3636" fill-opacity="0.83" stroke="black" stroke-width="2"/>
<circle cx="176" cy="204" r="4.5" stroke="black" stroke-width="3"/>
<circle cx="176.5" cy="161.5" r="3.5" fill="black"/>
<circle cx="177.5" cy="246.5" r="3.5" fill="black"/>
<circle cx="147.5" cy="161.5" r="3.5" fill="black"/>
<path d="M328 139C328 141.845 325.905 144 323.5 144C321.095 144 319 141.845 319 139C319 136.155 321.095 134 323.5 134C325.905 134 328 136.155 328 139Z" stroke="black" stroke-width="2"/>
<path d="M329 75C329 77.8451 326.905 80 324.5 80C322.095 80 320 77.8451 320 75C320 72.1549 322.095 70 324.5 70C326.905 70 329 72.1549 329 75Z" stroke="black" stroke-width="2"/>
<line y1="162" x2="195" y2="162" stroke="black" stroke-width="2"/>
<line x1="1.99243" y1="246.47" x2="311.007" y2="246.47" stroke="black" stroke-width="2"/>
<line x1="196.5" y1="155" x2="196.5" y2="170" stroke="black" stroke-width="3"/>
<line x1="196.553" y1="160.106" x2="212.553" y2="152.106" stroke="black" stroke-width="2"/>
<line x1="197.555" y1="160.168" x2="212.555" y2="170.168" stroke="black" stroke-width="2"/>
<line x1="213" y1="151" x2="213" y2="171" stroke="black" stroke-width="2"/>
<line x1="213" y1="162" x2="242" y2="162" stroke="black" stroke-width="2"/>
<line x1="241.425" y1="162.182" x2="268.424" y2="143.182" stroke="black" stroke-width="2"/>
<line x1="255" y1="51" x2="255" y2="69" stroke="black" stroke-width="2"/>
<line x1="252" y1="137" x2="252" y2="155" stroke="black" stroke-width="2"/>
<line x1="261" y1="51" x2="261" y2="65" stroke="black" stroke-width="2"/>
<line x1="258" y1="137" x2="258" y2="151" stroke="black" stroke-width="2"/>
<line x1="248" y1="49.5" x2="267" y2="49.5" stroke="black" stroke-width="3"/>
<line x1="245" y1="135.5" x2="264" y2="135.5" stroke="black" stroke-width="3"/>
<line x1="269" y1="138" x2="269" y2="157" stroke="black" stroke-width="2"/>
<line x1="269" y1="139" x2="319" y2="139" stroke="black" stroke-width="2"/>
<line x1="273" y1="75" x2="320" y2="75" stroke="black" stroke-width="2"/>
<line x1="269" y1="160" x2="296" y2="160" stroke="black" stroke-width="2"/>
<line x1="176" y1="165" x2="176" y2="194" stroke="black" stroke-width="2"/>
<line x1="177" y1="214" x2="177" y2="246" stroke="black" stroke-width="2"/>
<line x1="310" y1="247" x2="310" y2="276" stroke="black" stroke-width="2"/>
<line x1="300" y1="278.5" x2="321" y2="278.5" stroke="black" stroke-width="5"/>
<line x1="204" y1="155.987" x2="205.013" y2="74.9875" stroke="black" stroke-width="2"/>
<line x1="204" y1="76" x2="244" y2="76" stroke="black" stroke-width="2"/>
<line x1="243.486" y1="76.1425" x2="273.486" y2="58.1425" stroke="black" stroke-width="2"/>
<line x1="265.5" y1="51" x2="265.5" y2="52" stroke="black" stroke-width="3"/>
<line x1="262.5" y1="137" x2="262.5" y2="138" stroke="black" stroke-width="3"/>
<line x1="249.5" y1="51" x2="249.5" y2="52" stroke="black" stroke-width="3"/>
<line x1="246.5" y1="137" x2="246.5" y2="138" stroke="black" stroke-width="3"/>
<line x1="147" y1="158.013" x2="145" y2="2.01283" stroke="black" stroke-width="2"/>
<line x1="144" y1="3" x2="315" y2="3" stroke="black" stroke-width="2"/>
<line x1="304.179" y1="1.01613" x2="315.179" y2="3.01613" stroke="black" stroke-width="2"/>
<line x1="304.804" y1="5.01942" x2="314.804" y2="3.01942" stroke="black" stroke-width="2"/>
</svg>
