<svg width="25" height="72" viewBox="0 0 25 72" fill="none" xmlns="http://www.w3.org/2000/svg">
<mask id="path-1-inside-1_964_96" fill="white">
<path d="M0 26.5C0 21.2533 4.2533 17 9.5 17H12V36H9.5C4.2533 36 0 31.7467 0 26.5V26.5Z"/>
</mask>
<path d="M-2 26.5C-2 20.1487 3.14873 15 9.5 15H12V19H9.5C5.35786 19 2 22.3579 2 26.5H-2ZM12 38H9.5C3.14873 38 -2 32.8513 -2 26.5H2C2 30.6421 5.35786 34 9.5 34H12V38ZM9.5 38C3.14873 38 -2 32.8513 -2 26.5C-2 20.1487 3.14873 15 9.5 15V19C5.35786 19 2 22.3579 2 26.5C2 30.6421 5.35786 34 9.5 34V38ZM12 17V36V17Z" fill="black" mask="url(#path-1-inside-1_964_96)"/>
<mask id="path-3-inside-2_964_96" fill="white">
<path d="M0 44.5C0 39.2533 4.2533 35 9.5 35H12V54H9.5C4.2533 54 0 49.7467 0 44.5V44.5Z"/>
</mask>
<path d="M-2 44.5C-2 38.1487 3.14873 33 9.5 33H12V37H9.5C5.35786 37 2 40.3579 2 44.5H-2ZM12 56H9.5C3.14873 56 -2 50.8513 -2 44.5H2C2 48.6421 5.35786 52 9.5 52H12V56ZM9.5 56C3.14873 56 -2 50.8513 -2 44.5C-2 38.1487 3.14873 33 9.5 33V37C5.35786 37 2 40.3579 2 44.5C2 48.6421 5.35786 52 9.5 52V56ZM12 35V54V35Z" fill="black" mask="url(#path-3-inside-2_964_96)"/>
<mask id="path-5-inside-3_964_96" fill="white">
<path d="M0 62.5C0 57.2533 4.2533 53 9.5 53H12V72H9.5C4.2533 72 0 67.7467 0 62.5V62.5Z"/>
</mask>
<path d="M-2 62.5C-2 56.1487 3.14873 51 9.5 51H12V55H9.5C5.35786 55 2 58.3579 2 62.5H-2ZM12 74H9.5C3.14873 74 -2 68.8513 -2 62.5H2C2 66.6421 5.35786 70 9.5 70H12V74ZM9.5 74C3.14873 74 -2 68.8513 -2 62.5C-2 56.1487 3.14873 51 9.5 51V55C5.35786 55 2 58.3579 2 62.5C2 66.6421 5.35786 70 9.5 70V74ZM12 53V72V53Z" fill="black" mask="url(#path-5-inside-3_964_96)"/>
<mask id="path-7-inside-4_964_96" fill="white">
<path d="M0 9.5C0 4.2533 4.2533 0 9.5 0H12V19H9.5C4.2533 19 0 14.7467 0 9.5V9.5Z"/>
</mask>
<path d="M-2 9.5C-2 3.14873 3.14873 -2 9.5 -2H12V2H9.5C5.35786 2 2 5.35786 2 9.5H-2ZM12 21H9.5C3.14873 21 -2 15.8513 -2 9.5H2C2 13.6421 5.35786 17 9.5 17H12V21ZM9.5 21C3.14873 21 -2 15.8513 -2 9.5C-2 3.14873 3.14873 -2 9.5 -2V2C5.35786 2 2 5.35786 2 9.5C2 13.6421 5.35786 17 9.5 17V21ZM12 0V19V0Z" fill="black" mask="url(#path-7-inside-4_964_96)"/>
<line x1="12" y1="71" x2="25" y2="71" stroke="black" stroke-width="2"/>
<line x1="12" y1="1" x2="25" y2="1" stroke="black" stroke-width="2"/>
</svg>
